{
	"asset":{
		"version":"2.0",
		"generator":""
	},
	"scenes":[{
		"nodes":[0]
	}],
	"nodes":[{
		"name":"stovelogo",
		"mesh":0,
		"translation":[7.105427198782324e-17,
		-7.105427198782324e-17,
		-0.15000000596046449],
		"rotation":[0.0,
		0.0,
		0.0,
		-1.0],
		"scale":[1.0,
		1.0,
		1.0]
	}],
	"meshes":[{
		"name":"stovelogo",
		"primitives":[{
			"attributes":{
				"POSITION":1,
				"NORMAL":2,
				"TEXCOORD_0":3
			},
			"indices":0
		}]
	}],
	"accessors":[{
		"count":852,
		"bufferView":0,
		"type":"SCALAR",
		"min":[0],
		"componentType":5123,
		"byteOffset":0,
		"max":[381]
	},
	{
		"count":382,
		"bufferView":1,
		"type":"VEC3",
		"min":[-1.4411112070083619,
		-0.9326154589653015,
		-0.48456260561943056],
		"componentType":5126,
		"byteOffset":0,
		"max":[1.896224856376648,
		1.662719488143921,
		0.16653740406036378]
	},
	{
		"count":382,
		"bufferView":1,
		"type":"VEC3",
		"min":[-0.848613977432251,
		-1.0,
		-1.0],
		"componentType":5126,
		"byteOffset":12,
		"max":[0.848733127117157,
		1.0,
		1.0]
	},
	{
		"count":382,
		"bufferView":1,
		"type":"VEC2",
		"min":[0.0,
		0.0],
		"componentType":5126,
		"byteOffset":24,
		"max":[1.0,
		1.0]
	}],
	"bufferViews":[{
		"buffer":0,
		"byteOffset":0,
		"byteLength":1704,
		"target":34963
	},
	{
		"buffer":0,
		"byteOffset":1704,
		"byteLength":12224,
		"target":34962,
		"byteStride":32
	}],
	"buffers":[{
		"uri":"data:application/octet-stream;base64,",
		"byteLength":13928
	}]
}